<?xml version="1.0" encoding="UTF-8"?>
<svg id="Layer_1" data-name="Layer 1" xmlns="http://www.w3.org/2000/svg" viewBox="0 0 32 32">
  <defs>
    <style>
      .cls-1 {
        fill-rule: evenodd;
        stroke-width: 0px;
      }
    </style>
  </defs>
  <path class="cls-1" d="M21.75,9.79c1.66.7,2.89,1.45,4.2,2.1.57-.49,4.4-3.88,4.93-4.02,1.95,2.09-1.21,4.23-2.83,5.73,6.08,4.92-7.03,12.89-18.92,8.17C3.59,19.73.5,17.53.5,15.26c0-1.46,1.96-2.8,5.69-4.6-.89-1.16-1.67-2.18-2.45-3.19.81-.71.44-2.56,3.83,2.49,2.25-.76,2.89-.99,5.36-1.28-1.09-5.23-1.17-3.6-1.02-4.9,1.58.3,2.01-.49,2.91,4.76,1.53.22,3.09.18,4.71.75.65-1.48,1.18-2.66,1.78-4.1.64-1.52,2.11-.48,1.98.45-.25,1.74-1.1,3.2-1.55,4.15ZM12.02,19.91c-1.79-2.28-2.72-4.67-1.4-7.72-2.84.31-4.59,1.3-7.14,3.29,2.77,2.97,5.96,3.68,8.53,4.43ZM21.23,12.47c1.71,2.87,2.24,5.43-.56,7.92,2.07-.33,6.71-2.14,6.58-4.1-.81-1.96-3.34-3.07-6.01-3.82Z"/>
</svg>