<?xml version="1.0" encoding="UTF-8"?>
<svg id="Layer_1" data-name="Layer 1" xmlns="http://www.w3.org/2000/svg" viewBox="0 0 32 32">
  <defs>
    <style>
      .cls-1 {
        stroke-width: 0px;
      }
    </style>
  </defs>
  <path class="cls-1" d="M28.62,19.36c.77-.47,1.51-.98,2.22-1.53l-1.62-2.04c-3.67,2.83-8.26,4.52-13.25,4.52s-9.59-1.69-13.25-4.52l-1.62,2.04c.71.55,1.44,1.06,2.21,1.53l-1.11,1.38c-.85,1.06-.44,2.64.83,3.14l2.79-3.19c.98.45,2,.84,3.05,1.16l-.93,2.73c-.44,1.29.49,2.63,1.85,2.67l1.83-4.73c.96.17,1.95.29,2.95.35l.06,3.37c.03,1.36,1.36,2.31,2.66,1.88l.1-5.25c1-.06,1.98-.17,2.95-.35l1.15,2.99c.49,1.27,2.07,1.7,3.14.85l-1.54-4.51c1.05-.32,2.06-.71,3.05-1.16l1.55,1.78c.89,1.03,2.53.89,3.24-.27l-2.29-2.84Z"/>
</svg>